<svg xmlns="http://www.w3.org/2000/svg" width="227" height="254" viewBox="0 0 227 254" fill="none">
<path d="M82.9994 191.564L83.2411 192.572C83.1287 192.719 83.05 192.894 83.05 193.091C83.05 193.455 83.2751 193.763 83.595 193.907C83.5891 193.904 83.5813 193.905 83.5751 193.902C70.8069 187.874 57.7476 173.237 49.4346 155.667L52.2566 157.2C60.0938 172.746 71.6042 185.616 82.9994 191.564Z" fill="#828282"/>
<path d="M49.2134 104.662L49.0054 105.114L46.4531 106.242C46.4579 106.23 46.4546 106.216 46.4609 106.202L47.5032 103.934C50.3433 97.7119 52.3957 93.2163 58.5625 86.8222C58.6287 86.754 58.7088 86.7094 58.789 86.6663L58.8119 89.2412C53.7147 94.804 51.7968 98.9977 49.2134 104.662Z" fill="#828282"/>
<path d="M86.0718 68.0006H85.7471C85.8856 67.7969 85.9425 67.5428 85.8749 67.2885C85.7486 66.8068 85.2405 66.5171 84.7403 66.6373L84.6523 66.6598C90.5546 63.8126 101.068 60.7905 113.018 60.7905V62.5952C101.774 62.5952 91.877 65.3307 86.0718 68.0006Z" fill="#828282"/>
<path d="M113.019 60.791C113.242 60.791 113.468 60.8014 113.692 60.8061V61.0746C113.522 60.9017 113.285 60.791 113.019 60.791Z" fill="#828282"/>
<path d="M113.692 61.0732V62.3117C113.522 62.4858 113.284 62.5942 113.02 62.5942V60.791C113.284 60.791 113.522 60.9009 113.692 61.0732Z" fill="#828282"/>
<path d="M78.0954 168.563L77.5903 169.025C77.2301 169.357 77.2146 169.91 77.5578 170.261C77.6642 170.368 77.795 170.433 77.9321 170.476L77.935 170.496C77.8844 170.479 77.8305 170.482 77.7795 170.457C69.302 166.177 62.0031 160.514 56.4844 154.003V151.101C61.8646 158.02 69.322 164.039 78.0954 168.563Z" fill="#828282"/>
<path d="M63.8979 108.205L63.3203 108.026C63.368 108.03 63.4109 108.033 63.4697 108.039C63.6328 108.056 63.7714 108.121 63.8979 108.205Z" fill="#828282"/>
<path d="M62.9408 109.804C62.8038 109.792 62.7055 109.783 62.5714 109.774L62.2034 109.744C59.7357 109.554 57.5961 110.431 56.4844 111.259V109.121C57.0308 108.837 57.6574 108.582 58.3458 108.378L62.9408 109.804Z" fill="#828282"/>
<path d="M113.691 114.482H84.9189V114.932H113.691V114.482Z" fill="#828282"/>
<path d="M83.9847 116.285C84.1801 116.285 84.3726 116.226 84.5344 116.113C84.639 116.038 84.7159 115.94 84.7805 115.835H113.691V116.285H85.1223L93.2185 155.709H92.4518C92.2131 155.709 92.0192 155.817 91.8573 155.959C91.8481 155.968 91.8374 155.97 91.8296 155.977L91.7129 156.084L91.4417 156.331L83.1748 116.08L83.6983 116.242C83.7922 116.272 83.8894 116.285 83.9847 116.285Z" fill="#828282"/>
<path d="M84.8244 193.488C85.0306 193.08 84.8765 192.606 84.4978 192.357L84.5377 192.188H113.692V193.995H83.9854C84.3301 193.995 84.6626 193.809 84.8241 193.488" fill="#828282"/>
<path d="M83.0498 193.091C83.0498 192.893 83.1285 192.719 83.2408 192.571L83.3901 193.194C83.4392 193.397 83.6288 193.543 83.8457 193.543H83.8475C84.0629 193.543 84.2521 193.397 84.3016 193.191L84.4971 192.356C84.8773 192.606 85.0299 193.079 84.8233 193.488C84.6619 193.808 84.3308 193.993 83.9842 193.993C83.8534 193.993 83.7212 193.963 83.5948 193.907C83.2748 193.763 83.0498 193.455 83.0498 193.091Z" fill="#828282"/>
<path d="M93.1073 156.011C92.77 155.669 92.2236 155.654 91.8574 155.961C92.0189 155.817 92.2129 155.709 92.4515 155.709H113.691V157.516H92.7811L93.0734 157.245C93.4336 156.912 93.4491 156.359 93.1073 156.011Z" fill="#828282"/>
<path d="M78.2126 170.562C78.4436 170.562 78.6482 170.454 78.8223 170.302C78.8252 170.297 78.8315 170.296 78.8363 170.291L78.8437 170.286L83.8408 191.078L91.478 158.708L92.7021 157.587L84.5383 192.188H84.2165C83.8116 191.995 83.4052 191.776 82.9987 191.564L77.9355 170.495C78.0279 170.523 78.1188 170.562 78.2126 170.562Z" fill="#828282"/>
<path d="M83.9851 192.189C83.6738 192.189 83.4105 192.345 83.2408 192.573L82.999 191.564C83.4057 191.777 83.8109 191.995 84.2162 192.189H83.9851Z" fill="#828282"/>
<path d="M78.822 170.302C78.6493 170.454 78.4445 170.564 78.2119 170.564C78.1195 170.564 78.027 170.523 77.9361 170.496L77.9316 170.477C78.0226 170.507 78.1165 170.531 78.2134 170.531C78.4323 170.531 78.6478 170.454 78.822 170.302Z" fill="#828282"/>
<path d="M84.2168 192.188H84.5384L84.4985 192.357C84.463 192.335 84.4368 192.3 84.3968 192.281C84.3369 192.254 84.2767 192.218 84.2168 192.188Z" fill="#828282"/>
<path d="M84.2165 192.188C84.2764 192.218 84.3367 192.254 84.3966 192.281C84.4365 192.3 84.4628 192.334 84.4983 192.357L84.3027 193.192C84.2535 193.398 84.0638 193.544 83.8468 193.544H83.845C83.6294 193.544 83.4401 193.398 83.3906 193.196L83.2412 192.572C83.4105 192.344 83.6727 192.188 83.9855 192.188H84.2165Z" fill="#828282"/>
<path d="M95.7736 68.1986C95.8027 68.2377 95.8027 68.2853 95.8181 68.3301C95.7949 68.2674 95.7677 68.209 95.7217 68.1628C95.7382 68.1779 95.7614 68.1807 95.7736 68.1986Z" fill="#828282"/>
<path d="M78.9844 74.1123L83.8965 72.5781L78.9844 74.1123Z" fill="#828282"/>
<path d="M78.9844 101.511V101.274L82.5974 98.2282C83.2115 86.338 91.4754 73.2972 94.14 69.3782L95.5255 68.9457C95.6364 68.9115 95.7228 68.8373 95.7842 68.7495C95.7797 68.7552 95.7812 68.7613 95.7783 68.7659C95.6626 68.9233 84.2031 84.594 83.5902 98.4779C83.5843 98.6099 83.5226 98.7348 83.4195 98.8226L80.0388 101.673L79.0136 101.509C79.0029 101.507 78.9936 101.511 78.9844 101.511Z" fill="#828282"/>
<path d="M78.4014 73.2763L84.4374 71.3899L78.4028 73.2763H78.4014Z" fill="#828282"/>
<path d="M94.1391 69.3784L83.8955 72.5792L94.1391 69.3784Z" fill="#828282"/>
<path d="M95.8637 68.4092C95.8655 68.4227 95.8564 68.4316 95.8579 68.4448C95.8532 68.4049 95.8321 68.3679 95.8184 68.3291C95.8292 68.359 95.8593 68.3782 95.8637 68.4092Z" fill="#828282"/>
<path d="M95.4375 68.0246C95.3651 68.0157 95.2898 68.0022 95.2159 68.0246L84.438 71.3903L92.1999 68.9655L83.4836 68.9566L77.4258 70.3021L85.2002 68.3857C85.2401 68.3768 85.2708 68.35 85.3063 68.3368C85.334 68.3265 85.3632 68.3308 85.3894 68.3176C85.6066 68.212 85.842 68.1063 86.0714 68.0007H95.3699C95.3958 68.0007 95.4128 68.0218 95.4375 68.0246Z" fill="#828282"/>
<path d="M85.3076 68.3381C85.491 68.2665 85.6448 68.1529 85.748 68.0007H86.0734C85.8438 68.1067 85.6064 68.2127 85.3908 68.3184C85.3646 68.332 85.3353 68.3273 85.3076 68.3381Z" fill="#828282"/>
<path d="M94.1394 69.3782L83.8959 72.579L78.9834 74.1133V73.7607C78.9834 73.4931 78.7587 73.2762 78.4816 73.2762H78.4033L84.4379 71.3913L95.2157 68.0238C95.2911 68.0017 95.365 68.0149 95.4374 68.0238C95.5035 68.0342 95.5589 68.0552 95.6158 68.0877C95.6557 68.1116 95.6912 68.1295 95.7222 68.1623C95.7684 68.2083 95.7961 68.2679 95.819 68.3285C95.8327 68.3674 95.8545 68.4045 95.859 68.4445C95.8652 68.5159 95.842 68.5815 95.8161 68.6497C95.8021 68.6839 95.8035 68.7196 95.7836 68.7496C95.7222 68.837 95.6358 68.9116 95.525 68.9458L94.1394 69.3782Z" fill="#828282"/>
<path d="M63.5932 100.147C63.8641 100.14 64.0798 99.9226 64.0721 99.6593L64.0628 99.2832L74.2418 101.302L74.2448 101.888L75.1991 101.882C75.1991 101.916 75.2253 101.944 75.2176 101.98C75.1699 102.204 74.9652 102.359 74.7358 102.359C74.7036 102.359 74.6711 102.356 74.6375 102.349L63.4824 100.137C63.4362 100.128 63.4129 100.086 63.373 100.065C63.4407 100.099 63.5009 100.147 63.5811 100.147H63.5932Z" fill="#828282"/>
<path d="M78.4813 74.2452C78.5352 74.2452 78.5862 74.2377 78.6369 74.2213L78.9835 74.1128V101.51C78.5323 101.454 78.1088 101.729 77.9795 102.149V74.2452H78.4813Z" fill="#828282"/>
<path d="M78.327 73.2994C78.1208 73.3651 77.9793 73.551 77.9793 73.7604V74.245H61.4209L65.3528 73.2759H78.4009L78.327 73.2994Z" fill="#828282"/>
<path d="M78.4816 74.2455H77.9795V73.7603C77.9795 73.5507 78.1211 73.3647 78.3278 73.2993L78.4017 73.2769H78.4816C78.7589 73.2769 78.9841 73.4925 78.9841 73.7603V74.113L78.6372 74.2215C78.5866 74.238 78.5356 74.2455 78.4816 74.2455Z" fill="#828282"/>
<path d="M74.1025 78.7619L63.5139 78.4379L63.6004 81.7457L63.1507 81.719C62.8781 81.7115 62.6472 81.9002 62.6287 82.1617L62.5178 77.9591C62.5134 77.8281 62.5659 77.7033 62.6612 77.6112C62.7565 77.5191 62.8844 77.4521 63.0229 77.4731L74.6057 77.8281C74.8692 77.8356 75.0705 78.0469 75.0739 78.298L74.0992 78.3055L74.1025 78.7619Z" fill="#828282"/>
<path d="M63.0878 82.6653L63.6265 82.6978L63.7236 86.3863L63.294 86.3431C63.0276 86.3103 62.7815 86.5051 62.7538 86.7652C62.7261 87.0253 62.9215 87.259 63.1909 87.2872L63.748 87.3436L63.8404 90.8641L63.6527 90.8373C63.3727 90.7984 63.1355 90.98 63.0955 91.2387C63.0553 91.4974 63.2433 91.7382 63.5112 91.7768L63.8666 91.8274L63.956 95.2658L63.6727 95.2155C63.3834 95.1709 63.1495 95.3372 63.0985 95.5944C63.0494 95.8531 63.2249 96.1 63.4913 96.1489L63.9823 96.2367L64.0621 99.2844L63.6804 99.207C63.4081 99.1549 63.1554 99.3215 63.1 99.5773C63.083 99.6605 63.1199 99.7304 63.1462 99.806C63.131 99.7629 63.0922 99.7318 63.0907 99.6858L62.6289 82.1626C62.6119 82.4227 62.8184 82.6489 63.0878 82.6653Z" fill="#828282"/>
<path d="M63.6797 99.2077L64.0635 99.2838L64.0727 99.6601C64.0801 99.9232 63.8646 100.141 63.5936 100.148H63.581C63.5011 100.148 63.4409 100.1 63.3732 100.066C63.313 100.036 63.2594 100.014 63.2161 99.9635C63.1762 99.9175 63.1651 99.8653 63.1451 99.8072C63.1207 99.7315 63.0819 99.6601 63.0989 99.5783C63.1562 99.3223 63.4087 99.1542 63.6797 99.2077Z" fill="#828282"/>
<path d="M74.8346 101.421L74.242 101.303L74.222 98.0785C74.2372 98.0814 74.2556 98.0828 74.2712 98.0828C74.5036 98.0828 74.7097 97.9237 74.7544 97.6964C74.8036 97.4391 74.6285 97.1908 74.3621 97.1419L74.2157 97.1152L74.1925 93.29L74.3543 93.3125C74.3791 93.3153 74.402 93.3168 74.4252 93.3168C74.6669 93.3168 74.8745 93.1487 74.9115 92.9111C74.9514 92.6521 74.7652 92.4112 74.4958 92.3727L74.1865 92.3295L74.1618 88.4094L74.2187 88.4155C74.2357 88.4169 74.2542 88.4183 74.2712 88.4183C74.5191 88.4183 74.733 88.2371 74.7607 87.993C74.787 87.7329 74.5915 87.4996 74.3218 87.4714L74.1555 87.4536L74.1293 83.3444L74.3927 83.3622C74.4034 83.3622 74.4142 83.3636 74.4252 83.3636C74.682 83.3636 74.8993 83.1706 74.9163 82.9176C74.9333 82.6561 74.7267 82.4317 74.4574 82.4153L74.1248 82.3946L74.1016 78.7624L74.576 78.7774C74.8405 78.8206 75.0733 78.5783 75.0807 78.3182C75.0826 78.3107 75.0748 78.3061 75.0748 78.2986H75.0807L75.227 101.883H75.1978C75.1934 101.666 75.0641 101.467 74.8346 101.42" fill="#828282"/>
<path d="M74.2422 101.303L74.8352 101.42C75.0663 101.466 75.1957 101.666 75.2005 101.883L74.2451 101.889L74.2422 101.303Z" fill="#828282"/>
<path d="M74.5754 78.777L74.1026 78.762L74.0996 78.3054L75.0745 78.2993C75.0745 78.3068 75.0823 78.3115 75.0823 78.3172C75.0745 78.5792 74.8405 78.8202 74.5754 78.777Z" fill="#828282"/>
<path fill-rule="evenodd" clip-rule="evenodd" d="M74.1295 83.3442L63.5371 82.692L63.5996 81.7461L74.192 82.3983L74.1295 83.3442Z" fill="#828282"/>
<path d="M63.1513 81.7187L63.6009 81.7469L63.6256 82.6991L63.0866 82.6663C62.8186 82.6499 62.6119 82.4239 62.6289 82.1636V82.1618C62.6459 81.9001 62.8785 81.7112 63.1513 81.7187Z" fill="#828282"/>
<path d="M74.4578 82.4148C74.7273 82.4312 74.9337 82.6572 74.9167 82.9175C74.8997 83.1706 74.6826 83.3637 74.4252 83.3637C74.4145 83.3637 74.4038 83.3623 74.3931 83.3623L74.1309 83.3445L74.125 82.394L74.4578 82.4148Z" fill="#828282"/>
<path d="M63.7236 86.3866L74.1568 87.4537L74.1627 88.4081L63.7499 87.3438L63.7236 86.3862V86.3866Z" fill="#828282"/>
<path d="M63.1923 87.2873C62.9224 87.2591 62.7268 87.0256 62.7546 86.7653C62.7823 86.5051 63.0289 86.3101 63.2954 86.343L63.725 86.3876L63.7497 87.3441L63.1923 87.2873Z" fill="#828282"/>
<path d="M74.3226 87.4712C74.5921 87.4994 74.7881 87.7329 74.7618 87.9935C74.7341 88.2374 74.52 88.4188 74.272 88.4188C74.255 88.4188 74.2365 88.4173 74.2195 88.4159L74.1625 88.4098L74.1562 87.4534L74.3226 87.4712Z" fill="#828282"/>
<path d="M63.8408 90.8638L74.1858 92.3295L74.1921 93.2899L63.8671 91.8271L63.8408 90.8638Z" fill="#828282"/>
<path d="M63.5118 91.7776C63.2437 91.7387 63.0574 91.4977 63.0958 91.2388C63.1361 90.98 63.3731 90.7986 63.6537 90.8372L63.8415 90.864L63.8678 91.8279L63.5118 91.7776Z" fill="#828282"/>
<path d="M74.4965 92.3725C74.7646 92.4111 74.9514 92.6525 74.9125 92.9113C74.8756 93.1476 74.6663 93.3172 74.4259 93.3172C74.4026 93.3172 74.3782 93.3158 74.3549 93.3129L74.1915 93.2904L74.1855 92.3293L74.4965 92.3725Z" fill="#828282"/>
<path d="M63.9813 96.2372L63.9551 95.2664L74.2141 97.1156L74.22 98.0789C74.2078 98.0775 74.1938 98.0775 74.1801 98.0747L63.9813 96.2372Z" fill="#828282"/>
<path d="M63.4906 96.1495C63.2242 96.1002 63.0487 95.8535 63.0982 95.5947C63.1488 95.3387 63.3831 95.1706 63.6724 95.2152L63.9573 95.2659L63.9817 96.2388L63.4906 96.1495Z" fill="#828282"/>
<path d="M74.3622 97.142C74.6288 97.1909 74.8044 97.4394 74.7552 97.6968C74.7105 97.9246 74.5042 98.0835 74.2713 98.0835C74.2561 98.0835 74.2376 98.082 74.2221 98.0792L74.2158 97.1152L74.3622 97.142Z" fill="#828282"/>
<path d="M84.9198 103.665V103.212C84.9198 103.046 84.8611 102.897 84.7783 102.762H113.692V103.665H84.9198Z" fill="#828282"/>
<path d="M84.9193 114.932L113.692 114.932V115.835H84.7793C84.8639 115.698 84.9193 115.548 84.9193 115.384V114.932V114.932Z" fill="#828282"/>
<path d="M84.1358 67.9174C84.1542 67.953 84.1926 67.9677 84.2159 68.0005H83.3721L59.4968 73.2885C59.4395 73.3017 59.4089 73.3463 59.3612 73.3749C59.3272 73.3956 59.281 73.3909 59.2518 73.4195C59.2426 73.4298 59.2456 73.4462 59.2363 73.4566C59.1857 73.5144 59.1702 73.5843 59.1517 73.6585C59.1425 73.6974 59.1055 73.7256 59.107 73.7656L59.2226 86.5374C59.0701 86.542 58.9256 86.5923 58.79 86.6669L58.6729 73.7688C58.6699 73.3524 58.9611 72.9895 59.3782 72.8857L84.6515 66.6597C84.619 66.6761 84.5839 66.6907 84.5514 66.7071C84.0896 66.9301 83.9048 67.4728 84.1358 67.9174Z" fill="#828282"/>
<path d="M59.8339 99.3723H59.8387C60.1158 99.3709 60.339 99.1522 60.3361 98.8832L60.1129 74.2451H61.4212L60.5485 74.4592L60.7687 98.8803C60.7702 99.1657 60.6331 99.4348 60.3974 99.6085C60.1635 99.7798 59.8572 99.8333 59.5724 99.7544L56.7736 98.9634V105.995L63.3195 108.026C63.041 107.999 62.9161 107.989 62.7143 107.974L62.3541 107.947C60.8855 107.833 59.5247 108.027 58.3453 108.379L56.4843 107.8V101.807L54.9033 102.506V97.7593C54.9033 97.4752 55.0434 97.2077 55.2787 97.0367C55.5144 96.8658 55.8178 96.8123 56.1008 96.894L58.8888 97.6804L58.812 89.2422C58.9505 89.0906 59.0983 88.9361 59.2413 88.783L59.3322 98.8921C59.3351 99.1582 59.5602 99.3723 59.8339 99.3723Z" fill="#828282"/>
<path d="M83.5185 114.481H82.8471L83.1752 116.079L62.9404 109.804C63.0298 109.812 63.1314 109.821 63.2807 109.835C63.7825 109.888 64.2535 109.525 64.3045 109.028C64.3396 108.689 64.1674 108.385 63.8963 108.205L83.0504 114.147V103.98L78.7091 103.29C78.1996 103.208 77.8549 102.744 77.9395 102.252C77.9454 102.215 77.9701 102.185 77.9794 102.15V102.34C77.9794 102.457 78.0348 102.557 78.1102 102.645C78.132 102.67 78.1563 102.683 78.1826 102.704C78.2151 102.73 78.2365 102.763 78.2735 102.78C78.3411 102.808 78.412 102.823 78.4811 102.823C78.5997 102.823 78.7183 102.783 78.8122 102.704L80.0377 101.672L84.1359 102.324C84.4174 102.368 84.6406 102.538 84.7776 102.762H83.5185V114.481Z" fill="#828282"/>
<path d="M84.9193 103.665H84.4512V114.482H84.9193V103.665Z" fill="#828282"/>
<path d="M64.0273 73.2761L77.4251 70.3015L65.3526 73.2761H64.0273Z" fill="#828282"/>
<path d="M59.2417 88.784C59.0987 88.937 58.9509 89.0915 58.8123 89.2418L58.7891 86.6671C58.9247 86.5911 59.0691 86.5422 59.2217 86.5376L59.2417 88.784Z" fill="#828282"/>
<path d="M85.8745 67.2885C85.9421 67.5429 85.8852 67.797 85.7466 68.0007H84.2147C84.1915 67.9679 84.153 67.9532 84.1346 67.9176C83.9036 67.473 84.0884 66.9303 84.5502 66.7059C84.5828 66.6909 84.6197 66.6745 84.6518 66.6595L84.7398 66.6374C85.2401 66.5168 85.7466 66.8069 85.8745 67.2885Z" fill="#828282"/>
<path d="M64.3052 109.028C64.2542 109.524 63.7832 109.888 63.2814 109.835C63.1322 109.82 63.0306 109.811 62.9411 109.804L58.3457 108.378C59.5265 108.027 60.8858 107.832 62.3544 107.947L62.7147 107.975C62.9179 107.99 63.0413 107.999 63.3199 108.025L63.897 108.204C64.1682 108.385 64.3388 108.689 64.3052 109.028Z" fill="#828282"/>
<path d="M84.9196 114.482H84.4512V114.932H84.9196V114.482Z" fill="#828282"/>
<path d="M83.518 114.481V115.836H84.7787C84.7155 115.94 84.6387 116.038 84.5341 116.112C84.3723 116.227 84.1798 116.284 83.9843 116.284C83.889 116.284 83.7918 116.271 83.698 116.243L83.1748 116.079L82.8467 114.481H83.518Z" fill="#828282"/>
<path d="M78.4814 102.824C78.7587 102.824 78.9839 102.607 78.9839 102.339V101.51C78.9946 101.51 79.0024 101.508 79.0131 101.509L80.0391 101.672L78.8127 102.705C78.7188 102.784 78.6001 102.824 78.4814 102.824Z" fill="#828282"/>
<path d="M78.2733 102.78C78.2365 102.764 78.2132 102.728 78.1826 102.705C78.2671 102.769 78.364 102.823 78.4805 102.823C78.4116 102.823 78.3393 102.808 78.2733 102.78Z" fill="#828282"/>
<path d="M85.3074 68.3365C85.2705 68.35 85.2413 68.3768 85.201 68.3857L77.4251 70.3021L64.0274 73.2767H59.6074C59.515 73.2767 59.4397 73.3288 59.3613 73.3748C59.4075 73.3466 59.4397 73.3006 59.4951 73.2888L83.3722 68.0007H84.216C84.393 68.2519 84.6686 68.4139 84.9701 68.4139C85.0843 68.4139 85.1966 68.3782 85.3074 68.3368" fill="#828282"/>
<path d="M84.9703 68.4144C84.6682 68.4144 84.3928 68.2523 84.2139 68.001H85.7466C85.645 68.1527 85.4908 68.2659 85.3078 68.3373C85.1969 68.3787 85.0841 68.4144 84.9703 68.4144Z" fill="#828282"/>
<path d="M59.6072 74.245H60.1137L60.3369 98.8845C60.3398 99.1521 60.1167 99.3708 59.8396 99.3722H59.8333C59.561 99.3722 59.336 99.1582 59.3331 98.8934L59.2422 88.7844C59.4686 88.5421 59.6903 88.3013 59.929 88.0529C60.2814 87.6886 60.2596 87.1178 59.8828 86.7788C59.6962 86.6108 59.4579 86.5319 59.2222 86.538L59.1055 73.7648C59.1055 73.7244 59.1406 73.6962 59.1517 73.6577C59.1376 73.7127 59.1021 73.7573 59.1084 73.8154C59.1376 74.0591 59.3515 74.245 59.6072 74.245Z" fill="#828282"/>
<path d="M59.2519 73.4193C59.2811 73.3912 59.3274 73.3958 59.3615 73.3748C59.3181 73.4015 59.2689 73.4193 59.2363 73.4564C59.2456 73.4461 59.2426 73.4297 59.2519 73.4193Z" fill="#828282"/>
<path d="M59.9299 88.0529C59.6913 88.3012 59.4681 88.542 59.2416 88.7843L59.2217 86.5365C59.4574 86.5323 59.6975 86.6107 59.8838 86.7788C60.261 87.1177 60.2824 87.6886 59.9299 88.0529Z" fill="#828282"/>
<path d="M78.9849 101.51V102.34C78.9849 102.608 78.7598 102.824 78.4825 102.824C78.3657 102.824 78.2685 102.77 78.1838 102.704C78.1561 102.684 78.1328 102.671 78.1113 102.645C78.0359 102.559 77.9805 102.458 77.9805 102.34V102.15C78.1099 101.727 78.5335 101.452 78.9849 101.51Z" fill="#828282"/>
<path d="M59.6069 73.2761H65.3521L61.4206 74.2441H59.6069C59.3516 74.2441 59.1373 74.0596 59.1081 73.8145C59.1022 73.7578 59.1373 73.7118 59.1513 73.6582C59.1683 73.584 59.1835 73.5141 59.2359 73.4563C59.2684 73.4188 59.3176 73.401 59.3608 73.3742C59.4391 73.3296 59.5145 73.2761 59.6069 73.2761Z" fill="#828282"/>
<path d="M84.9196 103.665H84.4514V114.481H83.5186V102.762H84.7781C84.8612 102.897 84.9196 103.046 84.9196 103.212V103.665Z" fill="#828282"/>
<path d="M84.9206 114.933V115.385C84.9206 115.548 84.8651 115.698 84.7804 115.836H83.5186V114.482H84.4521V114.932H84.9206V114.933Z" fill="#828282"/>
<path d="M46.9331 107.395C47.0579 107.449 47.1873 107.474 47.3147 107.474C47.6705 107.474 48.0123 107.275 48.1678 106.94L49.0051 105.115L54.9044 102.507V106.652C54.9044 107.045 55.166 107.393 55.5525 107.511L56.4854 107.801V109.122C56.0143 109.367 55.6001 109.629 55.2569 109.892C54.8553 110.202 54.7873 110.77 55.1091 111.16C55.2923 111.384 55.565 111.5 55.8388 111.5C56.0435 111.5 56.2485 111.436 56.4207 111.304C56.4392 111.289 56.4654 111.274 56.4854 111.261V151.101C56.4255 151.026 56.3594 150.952 56.2992 150.877C56.0745 150.581 55.6988 150.462 55.3526 150.535C55.3278 150.383 55.2539 150.241 55.0921 150.178L54.6151 149.997V118.05L55.0167 117.969C55.2694 117.918 55.4324 117.679 55.3784 117.435C55.3263 117.191 55.0755 117.033 54.8261 117.087L54.6151 117.128V104.618L42.7887 109.848V108.001L41.0322 108.64L46.4527 106.243C46.271 106.689 46.476 107.198 46.9331 107.395Z" fill="#828282"/>
<path d="M54.615 156.41V150.966L54.7258 151.008C54.5718 151.303 54.5825 151.668 54.7997 151.95C55.3355 152.646 55.9096 153.325 56.4853 154.003V159.493L52.2567 157.199C51.8318 156.356 51.4084 155.51 51.0049 154.65C50.7895 154.196 50.2353 154.001 49.7672 154.202C49.2961 154.408 49.09 154.943 49.3009 155.396C49.3453 155.488 49.3915 155.577 49.4347 155.668L42.7891 152.063V149.992L54.615 156.41Z" fill="#828282"/>
<path d="M49.7658 154.202C50.2339 154.001 50.7896 154.196 51.0035 154.651C51.407 155.51 51.8304 156.356 52.2568 157.201L49.4352 155.668C49.3919 155.579 49.3443 155.488 49.3011 155.397C49.0886 154.942 49.2966 154.409 49.7658 154.202Z" fill="#828282"/>
<path d="M48.1688 106.94C48.0118 107.276 47.6715 107.473 47.316 107.473C47.1867 107.473 47.0574 107.448 46.934 107.395C46.4755 107.197 46.2723 106.69 46.4537 106.242L49.0064 105.114L48.1688 106.94V106.94Z" fill="#828282"/>
<path d="M54.9208 151.048C55.107 151.048 55.2825 150.94 55.3549 150.763C55.3855 150.687 55.3626 150.611 55.3519 150.534C55.6981 150.461 56.0739 150.581 56.3 150.876C56.3587 150.953 56.4248 151.024 56.4847 151.1V154.002C55.9091 153.324 55.3349 152.645 54.7992 151.949C54.5805 151.667 54.5698 151.304 54.7253 151.008L54.7497 151.017C54.8051 151.038 54.8624 151.048 54.9208 151.048" fill="#828282"/>
<path d="M56.4218 111.303C56.2493 111.436 56.0446 111.5 55.8399 111.5C55.5658 111.5 55.2931 111.384 55.1102 111.159C54.7884 110.77 54.8546 110.202 55.258 109.891C55.6012 109.628 56.0154 109.366 56.4864 109.121V111.26C56.4665 111.274 56.4403 111.288 56.4218 111.303Z" fill="#828282"/>
<path d="M56.4847 107.801L55.5532 107.511C55.1668 107.392 54.9033 107.044 54.9033 106.653V102.507L56.4847 101.808V107.801Z" fill="#828282"/>
<path d="M41.0313 108.64L40.919 108.689V151.048L42.7896 152.063V152.111L39.9092 150.609V109.047L41.0313 108.64Z" fill="#828282"/>
<path d="M40.9189 108.689L41.0313 108.64L42.7881 108.001V119.524L41.758 119.732C41.5057 119.782 41.3424 120.023 41.3963 120.267C41.4425 120.478 41.6365 120.625 41.8534 120.625C41.8859 120.625 41.9165 120.621 41.949 120.615L42.7881 120.446V145.488L42.0244 145.198C41.7872 145.11 41.5134 145.22 41.4192 145.452C41.3254 145.683 41.441 145.946 41.6827 146.037L42.7881 146.459V152.063L40.9189 151.048V108.689Z" fill="#828282"/>
<path d="M54.615 150.965L42.7891 146.459V145.487L54.615 149.996V150.965Z" fill="#828282"/>
<path d="M55.0926 150.177C55.2541 150.24 55.328 150.383 55.3528 150.535C55.2264 150.563 55.1034 150.61 54.994 150.689C54.8739 150.776 54.7893 150.889 54.7261 151.009L54.6152 150.966V149.996L55.0926 150.177Z" fill="#828282"/>
<path d="M55.3516 150.535C55.3623 150.612 55.3853 150.688 55.3546 150.762C55.2821 150.939 55.1065 151.049 54.9202 151.049C54.8633 151.049 54.8048 151.039 54.7494 151.018L54.7246 151.008C54.7878 150.887 54.8725 150.776 54.9926 150.689C55.1021 150.611 55.2252 150.563 55.3516 150.535Z" fill="#828282"/>
<path d="M41.6835 146.038C41.4417 145.945 41.3264 145.684 41.4203 145.452C41.5142 145.221 41.7885 145.111 42.0255 145.199L42.7897 145.489V146.46L41.6835 146.038Z" fill="#828282"/>
<path d="M54.615 118.05L42.7891 120.445V119.525L54.615 117.128V118.05Z" fill="#828282"/>
<path d="M54.8264 117.086C55.0759 117.034 55.327 117.19 55.3791 117.434C55.4331 117.678 55.27 117.919 55.0171 117.97L54.6152 118.05V117.129L54.8264 117.086Z" fill="#828282"/>
<path d="M41.949 120.616C41.9169 120.622 41.8858 120.626 41.8537 120.626C41.6363 120.626 41.4422 120.479 41.3959 120.268C41.3423 120.024 41.5054 119.783 41.7583 119.732L42.7887 119.524V120.446L41.949 120.616Z" fill="#828282"/>
<path d="M92.7825 157.515L92.7012 157.588L92.7184 157.515H92.7825Z" fill="#828282"/>
<path d="M91.6853 157.515H91.7592L91.4773 158.709L78.8447 170.287L78.8429 170.281C78.9124 170.215 78.994 170.165 79.0417 170.077C79.2804 169.636 79.1034 169.09 78.6475 168.86C78.4598 168.764 78.2813 168.659 78.0947 168.564L91.4418 156.332L91.6853 157.515Z" fill="#828282"/>
<path d="M79.0409 170.077C78.9933 170.165 78.9116 170.216 78.8425 170.281L78.6685 169.555C78.6101 169.314 78.3652 169.154 78.108 169.219C77.8556 169.276 77.7001 169.518 77.7585 169.76L77.931 170.477C77.7939 170.433 77.6646 170.367 77.5586 170.26C77.2153 169.911 77.2305 169.358 77.5907 169.025L78.0958 168.562C78.282 168.659 78.459 168.765 78.6471 168.859C79.1041 169.09 79.2811 169.636 79.0409 170.077Z" fill="#828282"/>
<path d="M91.5161 156.612C91.5161 156.873 91.6345 157.103 91.8155 157.269L91.7588 157.515H91.6835L91.4424 156.333L91.7112 156.086C91.5976 156.235 91.5161 156.41 91.5161 156.612Z" fill="#828282"/>
<path d="M92.9085 156.711C92.9639 156.468 92.8069 156.227 92.556 156.171C92.3018 156.116 92.0553 156.269 91.9955 156.511L91.8185 157.268C91.6352 157.103 91.5166 156.871 91.5166 156.613C91.5166 156.41 91.5983 156.235 91.7135 156.085C91.752 156.034 91.8107 156.003 91.8584 155.96C92.2249 155.654 92.7714 155.669 93.1084 156.01C93.4501 156.36 93.435 156.913 93.0747 157.244L92.7806 157.515H92.7189L92.9085 156.711Z" fill="#828282"/>
<path d="M91.8587 155.96C91.8107 156.003 91.7523 156.035 91.7139 156.086L91.8291 155.978C91.8384 155.97 91.8495 155.969 91.8587 155.96Z" fill="#828282"/>
<path d="M91.7596 157.515H92.7194L92.7024 157.588L91.4775 158.709L91.7596 157.515Z" fill="#828282"/>
<path d="M78.1081 169.219C78.3654 169.154 78.6105 169.315 78.669 169.557L78.8431 170.281C78.8353 170.287 78.829 170.296 78.8213 170.304C78.649 170.454 78.4316 170.531 78.2146 170.531C78.1174 170.531 78.0234 170.506 77.931 170.478L77.7584 169.761C77.7 169.518 77.8556 169.276 78.1081 169.219Z" fill="#828282"/>
<path d="M92.452 157.516H91.7588L91.8172 157.268C91.9836 157.419 92.2054 157.516 92.452 157.516Z" fill="#828282"/>
<path d="M91.9963 156.512C92.0562 156.269 92.3028 156.115 92.5553 156.171C92.8082 156.228 92.9653 156.469 92.9098 156.711L92.7202 157.516H92.4522C92.2056 157.516 91.9856 157.418 91.8174 157.269L91.9963 156.512Z" fill="#828282"/>
<path d="M144.39 191.564L144.149 192.572C144.26 192.719 144.339 192.894 144.339 193.091C144.339 193.455 144.113 193.763 143.793 193.907C143.799 193.904 143.807 193.905 143.814 193.902C156.583 187.874 169.64 173.237 177.953 155.667L175.133 157.2C167.295 172.746 155.785 185.616 144.39 191.564Z" fill="#828282"/>
<path d="M178.175 104.662L178.382 105.114L180.935 106.242C180.93 106.23 180.932 106.216 180.926 106.202L179.885 103.934C177.044 97.7119 174.992 93.2163 168.824 86.8222C168.759 86.754 168.678 86.7094 168.598 86.6663L168.576 89.2412C173.672 94.804 175.59 98.9977 178.175 104.662Z" fill="#828282"/>
<path d="M141.317 68.0006H141.642C141.503 67.7969 141.446 67.5428 141.514 67.2885C141.642 66.8068 142.147 66.5171 142.649 66.6373L142.738 66.6598C136.836 63.8126 126.321 60.7905 114.37 60.7905V62.5952C125.615 62.5952 135.512 65.3307 141.317 68.0006Z" fill="#828282"/>
<path d="M114.371 60.791C114.148 60.791 113.921 60.8014 113.696 60.8061V61.0746C113.867 60.9017 114.103 60.791 114.371 60.791Z" fill="#828282"/>
<path d="M113.695 61.0732V62.3117C113.866 62.4858 114.103 62.5942 114.369 62.5942V60.791C114.103 60.791 113.866 60.9009 113.695 61.0732Z" fill="#828282"/>
<path d="M149.294 168.563L149.797 169.025C150.159 169.357 150.173 169.91 149.831 170.261C149.723 170.368 149.594 170.433 149.457 170.476L149.454 170.496C149.505 170.479 149.558 170.482 149.608 170.457C158.087 166.177 165.384 160.514 170.903 154.003V151.101C165.524 158.02 158.066 164.039 149.294 168.563Z" fill="#828282"/>
<path d="M163.489 108.205L164.068 108.026C164.021 108.03 163.976 108.033 163.917 108.039C163.755 108.056 163.615 108.121 163.489 108.205Z" fill="#828282"/>
<path d="M164.447 109.804C164.584 109.792 164.681 109.783 164.817 109.774L165.184 109.744C167.652 109.554 169.792 110.431 170.902 111.259V109.121C170.357 108.837 169.731 108.582 169.041 108.378L164.447 109.804Z" fill="#828282"/>
<path d="M142.469 114.482H113.696V114.932H142.469V114.482Z" fill="#828282"/>
<path d="M143.403 116.285C143.208 116.285 143.015 116.226 142.853 116.113C142.749 116.038 142.672 115.94 142.607 115.835H113.694V116.285H142.265L134.169 155.709H134.936C135.173 155.709 135.369 155.817 135.53 155.959C135.539 155.968 135.55 155.97 135.558 155.977L135.675 156.084L135.944 156.331L144.211 116.08L143.689 116.242C143.596 116.272 143.498 116.285 143.403 116.285Z" fill="#828282"/>
<path d="M142.565 193.488C142.357 193.08 142.513 192.606 142.889 192.357L142.851 192.188H113.695V193.995H143.404C143.057 193.995 142.725 193.809 142.565 193.488Z" fill="#828282"/>
<path d="M144.339 193.091C144.339 192.893 144.258 192.719 144.147 192.571L143.996 193.194C143.949 193.397 143.76 193.543 143.542 193.543H143.541C143.324 193.543 143.134 193.397 143.087 193.191L142.89 192.356C142.511 192.606 142.357 193.079 142.565 193.488C142.725 193.808 143.058 193.993 143.404 193.993C143.535 193.993 143.666 193.963 143.793 193.907C144.113 193.763 144.339 193.455 144.339 193.091Z" fill="#828282"/>
<path d="M134.281 156.011C134.618 155.669 135.165 155.654 135.531 155.961C135.369 155.817 135.174 155.709 134.937 155.709H113.695V157.516H134.607L134.313 157.245C133.953 156.912 133.938 156.359 134.281 156.011Z" fill="#828282"/>
<path d="M149.176 170.562C148.945 170.562 148.74 170.454 148.566 170.302C148.563 170.297 148.557 170.296 148.552 170.291L148.545 170.286L143.547 191.078L135.91 158.708L134.687 157.587L142.85 192.188H143.172C143.577 191.995 143.983 191.776 144.39 191.564L149.453 170.495C149.361 170.523 149.27 170.562 149.176 170.562Z" fill="#828282"/>
<path d="M143.404 192.189C143.715 192.189 143.978 192.345 144.148 192.573L144.391 191.564C143.985 191.777 143.578 191.995 143.173 192.189H143.404Z" fill="#828282"/>
<path d="M148.568 170.302C148.741 170.454 148.946 170.564 149.178 170.564C149.271 170.564 149.363 170.523 149.454 170.496L149.459 170.477C149.366 170.507 149.272 170.531 149.177 170.531C148.957 170.531 148.741 170.454 148.568 170.302Z" fill="#828282"/>
<path d="M143.172 192.188H142.85L142.888 192.357C142.927 192.335 142.951 192.3 142.993 192.281C143.051 192.254 143.111 192.218 143.172 192.188Z" fill="#828282"/>
<path d="M143.172 192.188C143.112 192.218 143.052 192.254 142.994 192.281C142.952 192.3 142.927 192.334 142.889 192.357L143.086 193.192C143.135 193.398 143.325 193.544 143.542 193.544H143.543C143.761 193.544 143.95 193.398 143.998 193.196L144.149 192.572C143.978 192.344 143.716 192.188 143.403 192.188H143.172Z" fill="#828282"/>
<path d="M131.614 68.1987C131.583 68.2378 131.585 68.2854 131.569 68.3303C131.592 68.2675 131.62 68.2091 131.666 68.1628C131.65 68.1779 131.628 68.1808 131.614 68.1987Z" fill="#828282"/>
<path d="M148.406 74.1123L143.493 72.5781L148.406 74.1123Z" fill="#828282"/>
<path d="M148.406 101.511V101.274L144.791 98.2282C144.178 86.338 135.915 73.2972 133.248 69.3782L131.864 68.9457C131.753 68.9115 131.667 68.8373 131.605 68.7495C131.61 68.7552 131.607 68.7613 131.612 68.7659C131.726 68.9233 143.187 84.594 143.8 98.4779C143.806 98.6099 143.867 98.7348 143.97 98.8226L147.351 101.673L148.376 101.509C148.386 101.507 148.395 101.511 148.406 101.511Z" fill="#828282"/>
<path d="M148.985 73.2763L142.95 71.3899L148.985 73.2763Z" fill="#828282"/>
<path d="M133.248 69.3784L143.492 72.5792L133.248 69.3784Z" fill="#828282"/>
<path d="M131.523 68.4092C131.521 68.4227 131.532 68.4316 131.53 68.4448C131.535 68.4049 131.555 68.3679 131.568 68.3291C131.557 68.359 131.529 68.3782 131.523 68.4092Z" fill="#828282"/>
<path d="M131.95 68.0246C132.024 68.0157 132.098 68.0022 132.173 68.0246L142.951 71.3903L135.187 68.9655L143.904 68.9566L149.962 70.3021L142.187 68.3857C142.148 68.3768 142.117 68.35 142.08 68.3368C142.052 68.3265 142.024 68.3308 141.998 68.3176C141.781 68.212 141.546 68.1063 141.316 68.0007H132.018C131.992 68.0007 131.975 68.0218 131.95 68.0246Z" fill="#828282"/>
<path d="M142.08 68.3381C141.899 68.2661 141.743 68.1529 141.641 68.0007H141.316C141.546 68.1067 141.782 68.2124 141.999 68.3184C142.025 68.332 142.053 68.3273 142.08 68.3381Z" fill="#828282"/>
<path d="M133.247 69.3782L143.491 72.579L148.405 74.1133V73.7607C148.405 73.4931 148.628 73.2762 148.905 73.2762H148.985L142.951 71.3913L132.173 68.0238C132.098 68.0017 132.024 68.0149 131.95 68.0238C131.884 68.0342 131.83 68.0552 131.773 68.0877C131.732 68.1116 131.697 68.1295 131.665 68.1623C131.619 68.2083 131.592 68.2679 131.568 68.3285C131.554 68.3674 131.534 68.4045 131.529 68.4445C131.523 68.5159 131.546 68.5815 131.572 68.6497C131.585 68.6839 131.585 68.7196 131.605 68.7496C131.666 68.837 131.751 68.9116 131.864 68.9458L133.247 69.3782Z" fill="#828282"/>
<path d="M163.794 100.147C163.523 100.14 163.309 99.9226 163.315 99.6593L163.326 99.2832L153.147 101.302L153.142 101.888L152.189 101.882C152.189 101.916 152.162 101.944 152.169 101.98C152.217 102.204 152.424 102.359 152.653 102.359C152.684 102.359 152.717 102.356 152.75 102.349L163.905 100.137C163.953 100.128 163.974 100.086 164.016 100.065C163.948 100.099 163.888 100.147 163.806 100.147H163.794Z" fill="#828282"/>
<path d="M148.906 74.2452C148.853 74.2452 148.802 74.2377 148.752 74.2213L148.405 74.1128V101.51C148.856 101.454 149.278 101.729 149.408 102.149V74.2452H148.906Z" fill="#828282"/>
<path d="M149.061 73.2994C149.267 73.3651 149.409 73.551 149.409 73.7604V74.245H165.966L162.035 73.2759H148.985L149.061 73.2994Z" fill="#828282"/>
<path d="M148.906 74.2455H149.408V73.7603C149.408 73.5507 149.266 73.3647 149.062 73.2993L148.986 73.2769H148.906C148.629 73.2769 148.405 73.4925 148.405 73.7603V74.113L148.752 74.2215C148.803 74.238 148.854 74.2455 148.906 74.2455Z" fill="#828282"/>
<path d="M153.285 78.7619L163.875 78.4379L163.787 81.7457L164.237 81.719C164.509 81.7115 164.74 81.9002 164.758 82.1617L164.869 77.9591C164.874 77.8281 164.822 77.7033 164.726 77.6112C164.631 77.5191 164.503 77.4521 164.363 77.4731L152.782 77.8281C152.518 77.8356 152.315 78.0469 152.313 78.298L153.288 78.3055L153.285 78.7619Z" fill="#828282"/>
<path d="M164.301 82.6653L163.762 82.6978L163.666 86.3863L164.095 86.3431C164.361 86.3103 164.607 86.5051 164.636 86.7652C164.663 87.0253 164.467 87.259 164.198 87.2872L163.64 87.3436L163.548 90.8641L163.736 90.8373C164.016 90.7984 164.255 90.98 164.293 91.2387C164.333 91.4974 164.145 91.7382 163.879 91.7768L163.522 91.8274L163.433 95.2658L163.716 95.2155C164.005 95.1709 164.241 95.3372 164.29 95.5944C164.339 95.8531 164.164 96.1 163.897 96.1489L163.406 96.2367L163.326 99.2844L163.708 99.207C163.979 99.1549 164.233 99.3215 164.289 99.5773C164.307 99.6605 164.268 99.7304 164.244 99.806C164.258 99.7629 164.296 99.7318 164.298 99.6858L164.76 82.1626C164.776 82.4227 164.57 82.6489 164.301 82.6653Z" fill="#828282"/>
<path d="M163.709 99.2077L163.326 99.2838L163.316 99.6601C163.308 99.9232 163.524 100.141 163.795 100.148H163.805C163.887 100.148 163.947 100.1 164.015 100.066C164.075 100.036 164.129 100.014 164.172 99.9635C164.212 99.9175 164.224 99.8653 164.245 99.8072C164.268 99.7315 164.308 99.6601 164.289 99.5783C164.234 99.3223 163.98 99.1542 163.709 99.2077Z" fill="#828282"/>
<path d="M152.554 101.421L153.148 101.303L153.167 98.0785C153.151 98.0814 153.134 98.0828 153.117 98.0828C152.885 98.0828 152.678 97.9237 152.635 97.6964C152.585 97.4391 152.76 97.1908 153.028 97.1419L153.172 97.1152L153.197 93.29L153.034 93.3125C153.011 93.3153 152.985 93.3168 152.963 93.3168C152.722 93.3168 152.514 93.1487 152.477 92.9111C152.438 92.6521 152.624 92.4112 152.892 92.3727L153.203 92.3295L153.226 88.4094L153.168 88.4155C153.152 88.4169 153.134 88.4183 153.117 88.4183C152.869 88.4183 152.655 88.2371 152.629 87.993C152.6 87.7329 152.796 87.4996 153.066 87.4714L153.231 87.4536L153.257 83.3444L152.994 83.3622C152.983 83.3622 152.973 83.3636 152.963 83.3636C152.706 83.3636 152.489 83.1706 152.472 82.9176C152.457 82.6561 152.661 82.4317 152.931 82.4153L153.263 82.3946L153.287 78.7624L152.814 78.7774C152.548 78.8206 152.315 78.5783 152.307 78.3182C152.307 78.3107 152.315 78.3061 152.315 78.2986H152.307L152.161 101.883H152.19C152.195 101.666 152.324 101.467 152.554 101.42" fill="#828282"/>
<path d="M153.148 101.303L152.553 101.42C152.324 101.466 152.194 101.666 152.189 101.883L153.143 101.889L153.148 101.303Z" fill="#828282"/>
<path d="M152.815 78.777L153.287 78.762L153.29 78.3054L152.315 78.2993C152.315 78.3068 152.308 78.3115 152.308 78.3172C152.315 78.5792 152.548 78.8202 152.815 78.777Z" fill="#828282"/>
<path fill-rule="evenodd" clip-rule="evenodd" d="M153.194 82.3987L163.788 81.7461L163.851 82.692L153.257 83.3442L153.194 82.3987Z" fill="#828282"/>
<path d="M164.238 81.7187L163.788 81.7469L163.762 82.6991L164.301 82.6663C164.57 82.6499 164.777 82.4239 164.76 82.1636V82.1618C164.742 81.9001 164.51 81.7112 164.238 81.7187Z" fill="#828282"/>
<path d="M152.931 82.4148C152.661 82.4312 152.455 82.6572 152.472 82.9175C152.489 83.1706 152.706 83.3637 152.963 83.3637C152.973 83.3637 152.983 83.3623 152.994 83.3623L153.257 83.3445L153.264 82.394L152.931 82.4148Z" fill="#828282"/>
<path d="M163.667 86.3866L153.232 87.4537L153.228 88.4081L163.64 87.3438L163.667 86.3862V86.3866Z" fill="#828282"/>
<path d="M164.197 87.2873C164.468 87.2591 164.664 87.0256 164.636 86.7653C164.608 86.5051 164.36 86.3101 164.095 86.343L163.665 86.3876L163.641 87.3441L164.197 87.2873Z" fill="#828282"/>
<path d="M153.066 87.4712C152.795 87.4994 152.599 87.7329 152.629 87.9935C152.655 88.2374 152.869 88.4188 153.117 88.4188C153.134 88.4188 153.152 88.4173 153.168 88.4159L153.226 88.4098L153.231 87.4534L153.066 87.4712Z" fill="#828282"/>
<path d="M163.547 90.8638L153.202 92.3295L153.195 93.2899L163.52 91.8271L163.547 90.8638Z" fill="#828282"/>
<path d="M163.878 91.7776C164.146 91.7387 164.332 91.4977 164.294 91.2388C164.253 90.98 164.016 90.7986 163.734 90.8372L163.546 90.864L163.521 91.8279L163.877 91.7776H163.878Z" fill="#828282"/>
<path d="M152.892 92.3725C152.624 92.4111 152.437 92.6525 152.476 92.9113C152.513 93.1476 152.722 93.3172 152.963 93.3172C152.986 93.3172 153.01 93.3158 153.035 93.3129L153.197 93.2904L153.203 92.3293L152.892 92.3725Z" fill="#828282"/>
<path d="M163.406 96.2372L163.432 95.2664L153.173 97.1156L153.167 98.0789C153.179 98.0775 153.193 98.0775 153.209 98.0747L163.406 96.2372Z" fill="#828282"/>
<path d="M163.897 96.1495C164.164 96.1002 164.339 95.8535 164.29 95.5947C164.241 95.3387 164.004 95.1706 163.716 95.2152L163.431 95.2659L163.406 96.2388L163.897 96.1495Z" fill="#828282"/>
<path d="M153.028 97.142C152.76 97.1909 152.584 97.4394 152.635 97.6968C152.678 97.9246 152.884 98.0835 153.118 98.0835C153.134 98.0835 153.151 98.082 153.168 98.0792L153.174 97.1152L153.028 97.142Z" fill="#828282"/>
<path d="M142.468 103.665V103.212C142.468 103.046 142.526 102.897 142.609 102.762H113.695V103.665H142.468Z" fill="#828282"/>
<path d="M142.468 114.932L113.695 114.932V115.835H142.608C142.523 115.698 142.468 115.548 142.468 115.384V114.932V114.932Z" fill="#828282"/>
<path d="M143.253 67.9174C143.235 67.953 143.196 67.9677 143.173 68.0005H144.016L167.893 73.2885C167.949 73.3017 167.98 73.3463 168.028 73.3749C168.061 73.3956 168.109 73.3909 168.137 73.4195C168.146 73.4298 168.143 73.4462 168.152 73.4566C168.203 73.5144 168.218 73.5843 168.237 73.6585C168.246 73.6974 168.283 73.7256 168.283 73.7656L168.168 86.5374C168.318 86.542 168.463 86.5923 168.599 86.6669L168.716 73.7688C168.719 73.3524 168.428 72.9895 168.011 72.8857L142.737 66.6597C142.769 66.6761 142.806 66.6907 142.837 66.7071C143.297 66.9301 143.484 67.4728 143.253 67.9174Z" fill="#828282"/>
<path d="M167.554 99.3723H167.549C167.271 99.3709 167.049 99.1522 167.052 98.8832L167.274 74.2451H165.966L166.839 74.4592L166.619 98.8803C166.618 99.1657 166.755 99.4348 166.99 99.6085C167.224 99.7798 167.531 99.8333 167.816 99.7544L170.614 98.9634V105.995L164.068 108.026C164.347 107.999 164.472 107.989 164.673 107.974L165.033 107.947C166.502 107.833 167.862 108.027 169.042 108.379L170.904 107.8V101.807L172.483 102.506V97.7593C172.483 97.4752 172.345 97.2077 172.109 97.0367C171.874 96.8658 171.57 96.8123 171.287 96.894L168.499 97.6804L168.576 89.2422C168.437 89.0906 168.29 88.9361 168.146 88.783L168.054 98.8921C168.051 99.1582 167.828 99.3723 167.554 99.3723Z" fill="#828282"/>
<path d="M143.87 114.481H144.542L144.213 116.079L164.448 109.804C164.358 109.812 164.257 109.821 164.107 109.835C163.604 109.888 163.134 109.525 163.083 109.028C163.048 108.689 163.221 108.385 163.49 108.205L144.339 114.147V103.98L148.679 103.29C149.188 103.208 149.535 102.744 149.449 102.252C149.442 102.215 149.418 102.185 149.409 102.15V102.34C149.409 102.457 149.355 102.557 149.277 102.645C149.255 102.67 149.231 102.683 149.205 102.704C149.173 102.73 149.153 102.763 149.113 102.78C149.047 102.808 148.976 102.823 148.905 102.823C148.788 102.823 148.67 102.783 148.577 102.704L147.352 101.672L143.252 102.324C142.971 102.368 142.747 102.538 142.61 102.762H143.87V114.481Z" fill="#828282"/>
<path d="M142.936 103.665H142.468V114.482H142.936V103.665Z" fill="#828282"/>
<path d="M163.361 73.2761L149.963 70.3015L162.035 73.2761H163.361H163.361Z" fill="#828282"/>
<path d="M168.146 88.784C168.29 88.937 168.438 89.0915 168.576 89.2418L168.599 86.6671C168.464 86.5911 168.319 86.5422 168.168 86.5376L168.146 88.784Z" fill="#828282"/>
<path d="M141.514 67.2885C141.446 67.5429 141.503 67.797 141.642 68.0007H143.173C143.197 67.9679 143.235 67.9532 143.253 67.9176C143.484 67.473 143.298 66.9303 142.838 66.7059C142.807 66.6909 142.768 66.6745 142.738 66.6595L142.649 66.6374C142.147 66.5168 141.642 66.8069 141.514 67.2885Z" fill="#828282"/>
<path d="M163.084 109.028C163.133 109.524 163.604 109.888 164.106 109.835C164.257 109.82 164.357 109.811 164.448 109.804L169.041 108.378C167.863 108.027 166.503 107.832 165.034 107.947L164.672 107.975C164.471 107.99 164.346 107.999 164.069 108.025L163.49 108.204C163.221 108.385 163.048 108.689 163.084 109.028Z" fill="#828282"/>
<path d="M142.938 114.482H142.47V114.932H142.938V114.482Z" fill="#828282"/>
<path d="M143.869 114.481V115.836H142.608C142.673 115.94 142.749 116.038 142.853 116.112C143.015 116.227 143.207 116.284 143.403 116.284C143.498 116.284 143.595 116.271 143.689 116.243L144.213 116.079L144.542 114.481H143.869Z" fill="#828282"/>
<path d="M148.907 102.824C148.63 102.824 148.407 102.607 148.407 102.339V101.51C148.396 101.51 148.387 101.508 148.377 101.509L147.352 101.672L148.578 102.705C148.672 102.784 148.79 102.824 148.907 102.824Z" fill="#828282"/>
<path d="M149.113 102.78C149.151 102.764 149.172 102.728 149.205 102.705C149.119 102.769 149.022 102.823 148.904 102.823C148.975 102.823 149.046 102.808 149.113 102.78Z" fill="#828282"/>
<path d="M142.08 68.3365C142.117 68.35 142.148 68.3768 142.188 68.3857L149.962 70.3021L163.36 73.2767H167.78C167.872 73.2767 167.949 73.3288 168.026 73.3748C167.98 73.3466 167.949 73.3006 167.894 73.2888L144.017 68.0007H143.173C142.996 68.2519 142.72 68.4139 142.419 68.4139C142.305 68.4139 142.191 68.3782 142.08 68.3368" fill="#828282"/>
<path d="M142.419 68.4144C142.722 68.4144 142.997 68.2523 143.174 68.001H141.642C141.745 68.1527 141.899 68.2659 142.081 68.3373C142.193 68.3787 142.306 68.4144 142.419 68.4144Z" fill="#828282"/>
<path d="M167.781 74.245H167.274L167.051 98.8845C167.048 99.1521 167.271 99.3708 167.55 99.3722H167.554C167.827 99.3722 168.052 99.1582 168.055 98.8934L168.146 88.7844C167.919 88.5421 167.696 88.3013 167.457 88.0529C167.108 87.6886 167.128 87.1178 167.505 86.7788C167.691 86.6108 167.932 86.5319 168.167 86.538L168.283 73.7648C168.283 73.7244 168.247 73.6962 168.238 73.6577C168.252 73.7127 168.286 73.7573 168.279 73.8154C168.25 74.0591 168.035 74.245 167.781 74.245Z" fill="#828282"/>
<path d="M168.137 73.4193C168.108 73.3912 168.061 73.3958 168.027 73.3748C168.071 73.4015 168.118 73.4193 168.152 73.4564C168.143 73.4461 168.146 73.4297 168.137 73.4193Z" fill="#828282"/>
<path d="M167.458 88.0529C167.697 88.3012 167.92 88.542 168.146 88.7843L168.168 86.5365C167.932 86.5323 167.692 86.6107 167.506 86.7788C167.128 87.1177 167.107 87.6886 167.458 88.0529Z" fill="#828282"/>
<path d="M148.405 101.51V102.34C148.405 102.608 148.63 102.824 148.906 102.824C149.023 102.824 149.12 102.77 149.206 102.704C149.233 102.684 149.256 102.671 149.277 102.645C149.354 102.559 149.408 102.458 149.408 102.34V102.15C149.279 101.727 148.857 101.452 148.405 101.51Z" fill="#828282"/>
<path d="M167.78 73.2761H162.035L165.966 74.2441H167.78C168.035 74.2441 168.25 74.0596 168.279 73.8145C168.286 73.7578 168.252 73.7118 168.238 73.6582C168.218 73.584 168.204 73.5141 168.151 73.4563C168.119 73.4188 168.072 73.401 168.027 73.3742C167.948 73.3296 167.873 73.2761 167.78 73.2761Z" fill="#828282"/>
<path d="M142.469 103.665H142.937V114.481H143.869V102.762H142.61C142.527 102.897 142.469 103.046 142.469 103.212V103.665Z" fill="#828282"/>
<path d="M142.469 114.933V115.385C142.469 115.548 142.524 115.698 142.609 115.836H143.87V114.482H142.937V114.932H142.469V114.933Z" fill="#828282"/>
<path d="M180.456 107.395C180.331 107.449 180.202 107.474 180.074 107.474C179.718 107.474 179.376 107.275 179.219 106.94L178.382 105.115L172.483 102.507V106.652C172.483 107.045 172.221 107.393 171.835 107.511L170.903 107.801V109.122C171.373 109.367 171.787 109.629 172.132 109.892C172.534 110.202 172.6 110.77 172.278 111.16C172.095 111.384 171.824 111.5 171.548 111.5C171.344 111.5 171.139 111.436 170.967 111.304C170.948 111.289 170.923 111.274 170.903 111.261V151.101C170.964 151.026 171.03 150.952 171.088 150.877C171.315 150.581 171.69 150.462 172.037 150.535C172.061 150.383 172.135 150.241 172.295 150.178L172.774 149.997V118.05L172.372 117.969C172.118 117.918 171.956 117.679 172.01 117.435C172.063 117.191 172.312 117.033 172.563 117.087L172.774 117.128V104.618L184.599 109.848V108.001L186.357 108.64L180.936 106.243C181.118 106.689 180.913 107.198 180.456 107.395Z" fill="#828282"/>
<path d="M172.774 156.41V150.966L172.663 151.008C172.817 151.303 172.806 151.668 172.589 151.95C172.053 152.646 171.479 153.325 170.903 154.003V159.493L175.132 157.199C175.559 156.356 175.981 155.51 176.386 154.65C176.599 154.196 177.154 154.001 177.622 154.202C178.091 154.408 178.299 154.943 178.087 155.396C178.045 155.488 177.997 155.577 177.953 155.668L184.6 152.063V149.992L172.774 156.41Z" fill="#828282"/>
<path d="M177.621 154.202C177.151 154.001 176.599 154.196 176.383 154.651C175.98 155.51 175.557 156.356 175.132 157.201L177.952 155.668C177.995 155.579 178.043 155.488 178.086 155.397C178.297 154.942 178.091 154.409 177.621 154.202Z" fill="#828282"/>
<path d="M179.219 106.94C179.376 107.276 179.717 107.473 180.074 107.473C180.201 107.473 180.331 107.448 180.456 107.395C180.913 107.197 181.116 106.69 180.934 106.242L178.382 105.114L179.219 106.94V106.94Z" fill="#828282"/>
<path d="M172.467 151.048C172.28 151.048 172.105 150.94 172.033 150.763C172 150.687 172.025 150.611 172.037 150.534C171.689 150.461 171.314 150.581 171.087 150.876C171.029 150.953 170.963 151.024 170.902 151.1V154.002C171.478 153.324 172.053 152.645 172.588 151.949C172.807 151.667 172.818 151.304 172.662 151.008L172.637 151.017C172.582 151.038 172.525 151.048 172.467 151.048" fill="#828282"/>
<path d="M170.967 111.303C171.139 111.436 171.344 111.5 171.548 111.5C171.824 111.5 172.095 111.384 172.28 111.159C172.602 110.77 172.535 110.202 172.132 109.891C171.787 109.628 171.373 109.366 170.903 109.121V111.26C170.923 111.274 170.948 111.288 170.967 111.303Z" fill="#828282"/>
<path d="M170.903 107.801L171.835 107.511C172.221 107.392 172.483 107.044 172.483 106.653V102.507L170.903 101.808V107.801Z" fill="#828282"/>
<path d="M186.356 108.64L186.469 108.689V151.048L184.599 152.063V152.111L187.479 150.609V109.047L186.356 108.64Z" fill="#828282"/>
<path d="M186.469 108.689L186.357 108.64L184.599 108.001V119.524L185.629 119.732C185.883 119.782 186.044 120.023 185.99 120.267C185.944 120.478 185.75 120.625 185.535 120.625C185.502 120.625 185.471 120.621 185.438 120.615L184.599 120.446V145.488L185.362 145.198C185.601 145.11 185.875 145.22 185.969 145.452C186.063 145.683 185.946 145.946 185.706 146.037L184.599 146.459V152.063L186.469 151.048V108.689H186.469Z" fill="#828282"/>
<path d="M172.773 150.965L184.599 146.459V145.487L172.773 149.996V150.965Z" fill="#828282"/>
<path d="M172.295 150.177C172.135 150.24 172.061 150.383 172.036 150.535C172.163 150.563 172.284 150.61 172.393 150.689C172.515 150.776 172.598 150.889 172.661 151.009L172.774 150.966V149.996L172.295 150.177Z" fill="#828282"/>
<path d="M172.037 150.535C172.025 150.612 172.002 150.688 172.033 150.762C172.105 150.939 172.281 151.049 172.468 151.049C172.526 151.049 172.583 151.039 172.64 151.018L172.663 151.008C172.6 150.887 172.517 150.776 172.395 150.689C172.286 150.611 172.164 150.563 172.037 150.535Z" fill="#828282"/>
<path d="M185.706 146.038C185.946 145.945 186.063 145.684 185.97 145.452C185.876 145.221 185.601 145.111 185.362 145.199L184.599 145.489V146.46L185.706 146.038Z" fill="#828282"/>
<path d="M172.773 118.05L184.599 120.445V119.525L172.773 117.128V118.05Z" fill="#828282"/>
<path d="M172.563 117.086C172.312 117.034 172.063 117.19 172.01 117.434C171.957 117.678 172.118 117.919 172.373 117.97L172.774 118.05V117.129L172.563 117.086Z" fill="#828282"/>
<path d="M185.438 120.616C185.471 120.622 185.503 120.626 185.534 120.626C185.751 120.626 185.945 120.479 185.991 120.268C186.045 120.024 185.883 119.783 185.629 119.732L184.599 119.524V120.446L185.438 120.616Z" fill="#828282"/>
<path d="M134.607 157.515L134.688 157.588L134.672 157.515H134.607Z" fill="#828282"/>
<path d="M135.703 157.515H135.629L135.911 158.709L148.545 170.287L148.547 170.281C148.476 170.215 148.394 170.165 148.346 170.077C148.108 169.636 148.285 169.09 148.741 168.86C148.928 168.764 149.107 168.659 149.293 168.564L135.944 156.332L135.703 157.515Z" fill="#828282"/>
<path d="M148.346 170.077C148.394 170.165 148.476 170.216 148.547 170.281L148.719 169.555C148.779 169.314 149.022 169.154 149.279 169.219C149.533 169.276 149.687 169.518 149.629 169.76L149.458 170.477C149.595 170.433 149.724 170.367 149.83 170.26C150.174 169.911 150.158 169.358 149.796 169.025L149.293 168.562C149.107 168.659 148.928 168.765 148.74 168.859C148.285 169.09 148.108 169.636 148.346 170.077Z" fill="#828282"/>
<path d="M135.871 156.612C135.871 156.873 135.754 157.103 135.571 157.269L135.63 157.515H135.704L135.945 156.333L135.676 156.086C135.79 156.235 135.871 156.41 135.871 156.612Z" fill="#828282"/>
<path d="M134.481 156.711C134.424 156.468 134.581 156.227 134.834 156.171C135.088 156.116 135.334 156.269 135.393 156.511L135.571 157.268C135.754 157.103 135.871 156.871 135.871 156.613C135.871 156.41 135.791 156.235 135.676 156.085C135.637 156.034 135.579 156.003 135.531 155.96C135.165 155.654 134.618 155.669 134.281 156.01C133.938 156.36 133.953 156.913 134.315 157.244L134.608 157.515H134.671L134.481 156.711Z" fill="#828282"/>
<path d="M135.53 155.96C135.578 156.003 135.637 156.035 135.677 156.086L135.559 155.978C135.552 155.97 135.54 155.969 135.53 155.96Z" fill="#828282"/>
<path d="M135.631 157.515H134.671L134.688 157.588L135.913 158.709L135.631 157.515Z" fill="#828282"/>
<path d="M149.281 169.219C149.024 169.154 148.78 169.315 148.72 169.557L148.546 170.281C148.554 170.287 148.56 170.296 148.567 170.304C148.74 170.454 148.956 170.531 149.176 170.531C149.272 170.531 149.366 170.506 149.458 170.478L149.63 169.761C149.689 169.518 149.533 169.276 149.281 169.219Z" fill="#828282"/>
<path d="M134.937 157.516H135.63L135.571 157.268C135.405 157.419 135.183 157.516 134.937 157.516Z" fill="#828282"/>
<path d="M135.392 156.512C135.334 156.269 135.087 156.115 134.835 156.171C134.582 156.228 134.423 156.469 134.48 156.711L134.67 157.516H134.937C135.183 157.516 135.405 157.418 135.571 157.269L135.392 156.512Z" fill="#828282"/>
<path d="M112.401 62.5977C112.401 62.5977 114.418 62.5888 115.064 62.5977C115.711 62.6081 114.37 60.7913 114.37 60.7913C114.37 60.7913 113.297 60.7841 112.692 60.7913C112.089 60.7973 112.401 62.5977 112.401 62.5977Z" fill="#828282"/>
<path d="M113.44 0.539551L0.0644531 63.7516V190.174L113.44 253.386L226.814 190.174V63.7516L113.44 0.539551ZM113.44 2.2568L225.275 64.6094V189.316L113.44 251.669L1.60403 189.316V64.6094L113.44 2.2568Z" fill="#828282"/>
</svg>